<svg width="80" height="70" viewBox="0 0 80 70" fill="none" xmlns="http://www.w3.org/2000/svg">
<path d="M42.6059 2.60905V8.69682H49.4764C50.6974 8.69682 51.8906 9.06556 52.8994 9.75087L58.8028 13.7653C58.9454 13.8627 59.1159 13.9149 59.2898 13.9149H73.5596C74.2515 13.9149 74.9152 14.1898 75.4045 14.6791C75.8937 15.1684 76.1686 15.832 76.1686 16.524C76.1686 17.2159 75.8937 17.8795 75.4045 18.3688C74.9152 18.8581 74.2515 19.133 73.5596 19.133H68.0701L79.7795 45.8496C80.0144 46.3837 80.0632 46.9812 79.9182 47.5464C79.7731 48.1115 79.4425 48.6116 78.9794 48.9666C78.6316 49.224 78.2733 49.464 77.901 49.6832C77.0187 50.2097 76.1003 50.6736 75.1528 51.0712C72.0063 52.3871 68.6282 53.0601 65.2176 53.0506C61.8083 53.0613 58.4314 52.3895 55.2858 51.0747C54.3378 50.6769 53.4194 50.2119 52.5376 49.6832C52.1685 49.4696 51.8119 49.2349 51.4697 48.9805L51.4523 48.9666C50.9892 48.6116 50.6586 48.1115 50.5135 47.5464C50.3685 46.9812 50.4173 46.3837 50.6522 45.8496L62.3685 19.133H59.2864C58.0653 19.133 56.8721 18.7643 55.8633 18.0789L49.9599 14.0645C49.8165 13.9663 49.6466 13.9142 49.4729 13.9149H42.6059V64.3564H58.2149C58.9069 64.3564 59.5705 64.6313 60.0598 65.1206C60.5491 65.6099 60.824 66.2735 60.824 66.9655C60.824 67.6575 60.5491 68.3211 60.0598 68.8104C59.5705 69.2997 58.9069 69.5745 58.2149 69.5745H21.7787C21.0868 69.5745 20.4231 69.2997 19.9339 68.8104C19.4446 68.3211 19.1697 67.6575 19.1697 66.9655C19.1697 66.2735 19.4446 65.6099 19.9339 65.1206C20.4231 64.6313 21.0868 64.3564 21.7787 64.3564H37.3878V13.9149H30.5173C30.3436 13.9148 30.1739 13.9669 30.0303 14.0645L24.1303 18.0789C23.1215 18.7643 21.9283 19.133 20.7073 19.133H17.6251L29.3415 45.8496C29.5683 46.3686 29.62 46.9474 29.4888 47.4984C29.3576 48.0494 29.0507 48.5428 28.6144 48.9039C28.3361 49.1301 28.0578 49.3423 27.536 49.6797C26.6562 50.2494 25.7353 50.7529 24.7809 51.186C21.6389 52.6133 18.227 53.3489 14.776 53.3428C11.325 53.3501 7.91278 52.6145 4.77123 51.186C3.81677 50.7529 2.89585 50.2494 2.01608 49.6797C1.64405 49.4432 1.28521 49.1865 0.941151 48.9109C0.508321 48.5456 0.203866 48.0513 0.072401 47.5004C-0.0590636 46.9495 -0.0106249 46.371 0.210618 45.8496L11.9235 19.133H6.43754C5.74558 19.133 5.08196 18.8581 4.59267 18.3688C4.10338 17.8795 3.82849 17.2159 3.82849 16.524C3.82849 15.832 4.10338 15.1684 4.59267 14.6791C5.08196 14.1898 5.74558 13.9149 6.43754 13.9149H20.7073C20.8812 13.9149 21.0517 13.8627 21.1978 13.7653L27.0942 9.75087C28.1031 9.06208 29.2997 8.69682 30.5208 8.69682H37.3878V2.60905C37.3878 1.91708 37.6627 1.25346 38.1519 0.764171C38.6412 0.27488 39.3049 0 39.9968 0C40.6888 0 41.3524 0.27488 41.8417 0.764171C42.331 1.25346 42.6059 1.91708 42.6059 2.60905ZM5.88094 45.9122C8.61885 47.3698 11.6744 48.1286 14.776 48.1212C17.8777 48.1286 20.9333 47.3698 23.6712 45.9122L14.776 25.6313L5.88094 45.9122ZM56.3573 45.8287C56.6425 45.9679 56.9626 46.1175 57.3139 46.2671C59.1577 47.0428 61.8537 47.8325 65.2176 47.8325C68.2843 47.8411 71.3133 47.1561 74.0779 45.8287L65.2176 25.6278L56.3573 45.8287Z" fill="#D40000"/>
</svg>
