<svg width="5" height="9" viewBox="0 0 5 9" fill="none" xmlns="http://www.w3.org/2000/svg">
<path d="M3.49287 4.37057L0.183866 1.06457C0.125603 1.00675 0.0793596 0.937967 0.0478029 0.862193C0.0162462 0.786419 0 0.705148 0 0.623065C0 0.540982 0.0162462 0.459711 0.0478029 0.383937C0.0793596 0.308163 0.125603 0.239384 0.183866 0.181565C0.301763 0.0652276 0.460733 0 0.626366 0C0.791998 0 0.950967 0.0652276 1.06886 0.181565L4.81786 3.92857C4.93121 4.04233 4.99633 4.1954 4.99968 4.35596C5.00303 4.51651 4.94436 4.67217 4.83587 4.79057L1.07087 8.56357C1.01289 8.62168 0.94403 8.6678 0.868227 8.6993C0.792424 8.73079 0.711159 8.74705 0.629072 8.74715C0.546985 8.74724 0.465684 8.73116 0.38981 8.69984C0.313936 8.66851 0.244975 8.62254 0.186865 8.56456C0.128755 8.50659 0.0826342 8.43773 0.0511351 8.36193C0.0196359 8.28612 0.0033754 8.20486 0.00328255 8.12277C0.00318969 8.04069 0.0192658 7.95938 0.0505934 7.88351C0.0819209 7.80764 0.127887 7.73867 0.185865 7.68056L3.49287 4.37057Z" fill="#E6CD92"/>
</svg>
